<svg width="76" height="85" fill="none" xmlns="http://www.w3.org/2000/svg"><path d="M46.06 16.52c-1.542.215-3.133.63-4.863 1.272-2.474.918-4.684.918-7.161 0-1.712-.634-3.343-1.061-4.855-1.271-5.297-.751-9.269 1.883-10.86 6.955-1.118 3.584-1.06 6.852.189 10.002a86.3 86.3 0 0 0 .836 2c.534 1.25 1.09 2.538 1.46 3.826a30.989 30.989 0 0 1 1.131 6.016c.143 1.769.203 3.541.257 5.318.074 2.174.15 4.428.377 6.645.352 3.481 1.235 7.81 4.969 10.415 1.822 1.263 3.784 1.196 5.375-.196 2.602-2.274 2.73-5.492 2.548-8.051l-.085-1.16c-.15-2.001-.303-4.07-.221-6.005.057-1.374.377-2.87.936-4.336.263-.708 1.071-.815 1.53-.815.453 0 1.25.107 1.52.819.549 1.47.873 2.965.93 4.328.081 1.944-.072 4.019-.225 6.065l-.082 1.107c-.181 2.549-.06 5.767 2.556 8.052.854.74 1.698 1.071 2.734 1.071.9 0 1.787-.296 2.644-.886 3.716-2.599 4.603-6.927 4.958-10.412.225-2.189.303-4.41.378-6.666.053-1.77.11-3.535.252-5.293.164-1.958.545-3.98 1.136-6.019.37-1.281.922-2.563 1.46-3.805.284-.67.572-1.346.843-2.025 1.246-3.147 1.303-6.414.181-9.995-1.594-5.072-5.656-7.703-10.849-6.955Zm7.36 15.634a76.45 76.45 0 0 1-.811 1.932c-.552 1.278-1.178 2.734-1.61 4.226a34.014 34.014 0 0 0-1.26 6.72c-.149 1.822-.21 3.648-.27 5.567-.07 2.075-.142 4.214-.356 6.321-.313 3.04-.946 6.1-3.445 7.845-.42.295-.491.512-1.011.057-1.143-.997-1.534-2.478-1.342-5.1l.086-1.15c.153-2.108.316-4.282.224-6.44-.075-1.73-.477-3.609-1.157-5.424-.726-1.93-2.584-3.129-4.848-3.129-2.285 0-4.15 1.203-4.862 3.126-.683 1.808-1.086 3.684-1.16 5.428-.09 2.146.074 4.317.231 6.46l.082 1.114c.188 2.634-.203 4.111-1.342 5.111-.523.463-.59.235-.997-.046-2.516-1.755-3.15-4.812-3.46-7.852-.216-2.136-.291-4.303-.359-6.403-.064-1.834-.12-3.66-.27-5.485-.175-2.172-.598-4.432-1.26-6.72-.431-1.503-1.058-2.958-1.606-4.24a95.534 95.534 0 0 1-.8-1.915c-.933-2.352-.965-4.844-.1-7.62 1.093-3.464 3.492-4.976 6.969-4.492 1.26.178 2.645.54 4.111 1.085 3.275 1.218 6.36 1.218 9.635 0 1.488-.551 2.834-.907 4.119-1.085 4.228-.584 6.228 2.174 6.958 4.495.872 2.77.84 5.265-.089 7.614Z" fill="#031126" fill-opacity=".75"/><path d="M75.1 23.946c.022-2.58.043-5.161.043-7.738v-3.382a3.49 3.49 0 0 0-1.135-2.573c-.644-.587-1.456-.915-2.67-.9C57.83 10.594 48.01 7.928 39.855.834 38.592-.28 36.535-.275 35.278.83c-6.82 5.94-15.191 8.831-25.6 8.831-1.854 0-3.818-.089-6.121-.274a3.477 3.477 0 0 0-3.5 3.481v3.47c0 2.641-.013 5.286-.028 7.93-.035 6.272-.074 13.384.118 20.303.085 2.87.562 7.12 2.356 11.095 5.983 13.227 16.943 22.705 33.498 28.966a5.68 5.68 0 0 0 2.064.367c1.015 0 2.1-.231 3.043-.659 12.241-5.4 20.844-12.009 27.066-20.8 4.997-7.059 7.3-14.235 7.033-21.94-.203-5.966-.153-12.174-.106-17.655ZM65.273 61.48c-5.834 8.243-13.97 14.472-25.606 19.605-.78.349-1.794.455-2.392.224C21.63 75.393 11.323 66.527 5.753 54.2c-1.556-3.439-1.972-7.194-2.043-9.732-.196-6.862-.157-13.938-.121-20.181.014-2.649.028-5.3.028-7.949l-.078-3.395c14.302 1.245 25.3-1.766 33.978-9.422 7.489 6.514 16.59 9.682 27.83 9.682 2.008 0 4.137-.1 6.237-.37v3.38c0 2.57-.022 5.137-.043 7.71-.046 5.514-.096 11.76.11 17.804.243 6.892-1.843 13.355-6.378 19.752Z" fill="#031126" fill-opacity=".75"/></svg>