<svg width="97" height="85" fill="none" xmlns="http://www.w3.org/2000/svg"><path d="M48.481 52.356a17.136 17.136 0 0 1-5.813-3.832 17.375 17.375 0 0 1-2.986-3.998 2.155 2.155 0 0 0-3.792 2.051 21.672 21.672 0 0 0 3.728 4.995 21.384 21.384 0 0 0 7.27 4.79 2.155 2.155 0 0 0 2.798-1.207 2.15 2.15 0 0 0-1.205-2.799Z" fill="#031126" fill-opacity=".75"/><path d="M83.471 56.023a6.078 6.078 0 0 0-6.853-1.237l-4.956-4.958c5.891-7.323 6.296-17.627 1.205-25.354.318-5.879-1.348-11.23-4.89-15.509C62.531 2.392 52.695-1.087 43.521.303a26.378 26.378 0 0 0-7.073 2.105A26.323 26.323 0 0 0 29.38.304c-9.186-1.39-19.02 2.089-24.465 8.662-9.733 11.775-3.884 29.93 7.685 39.496.627.52.938 1.288.83 2.051-1.654 11.834-1.166 19.737 6.09 30.084.81 1.158 1.866 2.228 3.253 3.313.682.585 1.383.927 2.213 1.06.157.02.322.03.494.03 1.561 0 3.645-.84 4.178-2.676.173-.586.194-1.228.153-1.879a2.13 2.13 0 0 0-.016-.76 71.86 71.86 0 0 0-.198-.9l-.014-.068c-.022-.122-.043-.24-.067-.353-.008-.035-.025-.067-.035-.102-.112-.49-.222-.962-.328-1.414-.78-3.333-1.295-5.535-.787-9.26.572-4.192 3.801-6.287 6.393-6.807 2.61-.522 6.134.174 8.205 3.694 2.467 4.196 1.28 9.809.23 14.761l-.094.448a2.11 2.11 0 0 0-.018.738c-.04.64-.02 1.293.154 1.865.513 1.854 2.588 2.704 4.22 2.704.187 0 .368-.01.54-.033.75-.124 1.443-.468 2.05-.99 1.45-1.135 2.507-2.202 3.336-3.37 5.387-7.68 7.306-14.186 6.78-23.404a21.536 21.536 0 0 0 8.475-4.296l4.937 4.939c-1.016 2.256-.618 4.999 1.233 6.848l11.698 11.698a6.084 6.084 0 0 0 4.333 1.795 6.085 6.085 0 0 0 4.331-1.795 6.133 6.133 0 0 0 0-8.663L83.471 56.023Zm-16.414-7.5a17.26 17.26 0 0 1-13.239 5.02 2.156 2.156 0 0 0-.258 4.304c.433.025.866.038 1.297.038.34 0 .678-.034 1.017-.05.394 8.01-1.28 13.528-6.014 20.28-.562.79-1.327 1.558-2.473 2.464a9.68 9.68 0 0 1 .107-.804l.012-.057.068-.35c1.113-5.299 2.27-11.7-.893-17.079-2.651-4.507-7.658-6.756-12.77-5.735-5.238 1.052-9.092 5.153-9.815 10.45-.615 4.516.037 7.301.863 10.827.133.57.275 1.182.416 1.818l.015.08.012.056.006.026c.052.326.082.575.1.765-1.113-.874-1.893-1.652-2.453-2.453-6.513-9.285-6.915-15.838-5.352-27.014.315-2.252-.561-4.482-2.35-5.967C6.7 37.985-.587 22.387 8.237 11.712c4.445-5.365 12.874-8.303 20.506-7.146A22.237 22.237 0 0 1 35.48 6.72c.068.035.141.05.211.077.08.057.158.117.247.164a24.068 24.068 0 0 1 7.325 5.997 2.152 2.152 0 0 0 1.671.794 2.157 2.157 0 0 0 1.67-3.518 28.296 28.296 0 0 0-5.344-5.018c.958-.28 1.924-.509 2.9-.653 7.62-1.156 16.055 1.783 20.499 7.147 1.856 2.243 3.078 4.87 3.626 7.76a21.385 21.385 0 0 0-13.42-4.7 21.418 21.418 0 0 0-15.243 6.313 21.593 21.593 0 0 0-5.985 19.007 2.156 2.156 0 0 0 4.245-.75 17.278 17.278 0 0 1 4.787-15.21 17.132 17.132 0 0 1 12.194-5.05c4.605 0 8.937 1.794 12.194 5.05 6.723 6.728 6.723 17.669 0 24.393Zm25.065 24.813c-.687.688-1.881.686-2.567 0L77.857 61.638a1.819 1.819 0 0 1 0-2.567 1.803 1.803 0 0 1 1.282-.531c.486 0 .941.188 1.284.53l11.698 11.7c.708.707.708 1.858.001 2.566Z" fill="#031126" fill-opacity=".75"/><path d="M54.31 29.058c1.154-2.164 1.048-4.285.881-5.356a2.165 2.165 0 0 0-2.46-1.8 2.156 2.156 0 0 0-1.8 2.46c.084.541.141 1.607-.426 2.668-.97 1.823-3.055 2.206-3.29 2.244a2.155 2.155 0 1 0 .684 4.256c.736-.117 4.503-.888 6.412-4.472Zm8.217 10.64c-.703-.25-4.378-1.38-7.773.848-1.514.994-2.702 2.511-3.342 4.272a2.156 2.156 0 1 0 4.052 1.474c.188-.517.652-1.483 1.656-2.14 1.727-1.135 3.74-.47 3.963-.39a2.158 2.158 0 0 0 2.753-1.31 2.158 2.158 0 0 0-1.31-2.754Zm1.61-3.63a2.332 2.332 0 1 0 0-4.665 2.332 2.332 0 0 0 0 4.665ZM44.249 47.17a2.332 2.332 0 1 0 0-4.664 2.332 2.332 0 0 0 0 4.664Zm8.891-9.768a1.43 1.43 0 1 0 0-2.86 1.43 1.43 0 0 0 0 2.86Zm7.53-11.344a1.728 1.728 0 1 0 0-3.456 1.728 1.728 0 0 0 0 3.456Zm-.296 24.5a1.43 1.43 0 1 0 0-2.86 1.43 1.43 0 0 0 0 2.86Zm-17.555-19.98a1.43 1.43 0 1 0 0-2.86 1.43 1.43 0 0 0 0 2.86ZM23.14 8.401h-.064c-4.091 0-7.407 1.182-9.856 3.512a2.157 2.157 0 0 0 2.972 3.123c1.62-1.542 3.936-2.323 6.885-2.323h.056a2.156 2.156 0 0 0 .006-4.312Zm-10.786 8.061A2.16 2.16 0 0 0 9.65 17.87a21.294 21.294 0 0 0-.795 3.705 2.154 2.154 0 1 0 4.275.545 16.99 16.99 0 0 1 .63-2.953 2.154 2.154 0 0 0-1.405-2.704Z" fill="#031126" fill-opacity=".75"/></svg>