<svg width="62" height="85" fill="none" xmlns="http://www.w3.org/2000/svg"><path d="M6.583 31.98a17.371 17.371 0 0 1 3.746 4.437 1.767 1.767 0 0 0 1.52.866h2.987v7.069a1.767 1.767 0 0 0 1.767 1.767h5.302v3.535h-1.767v3.534h1.767v3.535h-1.767v3.535h1.767v3.534h-1.767v3.535h1.767v3.535h-1.767v3.534h1.767v3.535a1.767 1.767 0 0 0 .707 1.414l7.07 5.302a1.767 1.767 0 0 0 2.12 0l7.07-5.302a1.767 1.767 0 0 0 .706-1.414v-3.535h1.768v-3.534h-1.768v-3.535h1.768v-3.535h-1.768v-3.534h1.768v-3.535h-1.768v-3.535h1.768v-3.534h-1.768v-3.535h5.302a1.767 1.767 0 0 0 1.768-1.767v-7.07h2.986a1.767 1.767 0 0 0 1.52-.865 17.37 17.37 0 0 1 3.747-4.436A18.044 18.044 0 1 0 30.74 5.224 18.044 18.044 0 1 0 6.584 31.98Zm29.46 45.05-5.301 3.976-5.302-3.977v-2.633h10.604v2.633Zm0-6.168H25.44v-3.535h10.604v3.535Zm0-7.07H25.44v-3.534h10.604v3.534Zm0-7.069H25.44v-3.535h10.604v3.535Zm0-7.07H25.44V46.12h10.604v3.535Zm7.07-7.068H18.37v-5.302h24.742v5.302ZM3.932 15.65A14.51 14.51 0 0 1 29.38 9.006a1.767 1.767 0 0 0 2.722 0 14.51 14.51 0 1 1 20.536 20.288 20.397 20.397 0 0 0-3.977 4.454h-35.84a20.395 20.395 0 0 0-3.977-4.471A14.404 14.404 0 0 1 3.932 15.65Z" fill="#031126" fill-opacity=".75"/><path d="m43.502 10.773-2.51-2.545a14.403 14.403 0 0 1-10.25 4.312 14.404 14.404 0 0 1-10.25-4.24l-2.51 2.474a17.921 17.921 0 0 0 12.76 5.302 17.92 17.92 0 0 0 12.76-5.302Z" fill="#031126" fill-opacity=".75"/></svg>