<svg width="74" height="74" fill="none" xmlns="http://www.w3.org/2000/svg"><g clip-path="url(#a)"><g filter="url(#b)"><path d="M62 0H12C5.373 0 0 5.373 0 12v50c0 6.627 5.373 12 12 12h50c6.627 0 12-5.373 12-12V12c0-6.627-5.373-12-12-12Z" fill="#49B3FB"/></g><path d="M48.89 26.347h-1.759v-1.76a.67.67 0 0 0-.67-.67h-2.973c-.37 0-.67.3-.67.67v1.76h-1.76a.67.67 0 0 0-.669.67v2.973c0 .37.3.67.67.67h1.76v1.753c0 .37.3.67.67.67h2.972c.37 0 .67-.3.67-.67v-1.754h1.76c.37 0 .67-.3.67-.67v-2.973c0-.37-.3-.67-.67-.67Zm-.67 2.973h-1.759c-.37 0-.67.3-.67.67v1.753h-1.634V29.99c0-.37-.3-.67-.669-.67h-1.76v-1.634h1.76a.67.67 0 0 0 .67-.67v-1.76h1.633v1.76c0 .37.3.67.67.67h1.76v1.634Z" fill="#031126" fill-opacity=".6"/><path d="M52.474 28.5c0-4.136-3.364-7.5-7.5-7.5a7.487 7.487 0 0 0-5.938 2.936 22.098 22.098 0 0 0-3.687 1.089c-1.112-.448-6.421-2.418-9.965-.78-1.397.645-2.346 1.76-2.825 3.313-1.454 4.725.245 8.127 1.485 10.61.475.95.884 1.77.946 2.369.035.337.062.823.097 1.409.242 4.14.663 8.701 2.61 10.393.506.44 1.083.661 1.716.661.076 0 .152-.003.229-.01 2.194-.18 2.224-2.48 2.25-4.51.04-3.192.292-5.13 3.394-5.13l.11.002c3.116 0 3.366 1.938 3.408 5.128.027 2.03.057 4.33 2.25 4.509.726.06 1.378-.158 1.943-.65 1.948-1.69 2.368-6.256 2.608-10.402.035-.583.062-1.067.096-1.401.063-.6.473-1.42.947-2.37.403-.808.852-1.72 1.23-2.752 2.697-1.137 4.596-3.808 4.596-6.914Zm-7.025 9.068c-.532 1.066-.992 1.987-1.081 2.83-.036.35-.065.855-.1 1.462-.151 2.599-.465 8.006-2.15 9.468-.29.253-.591.355-.954.326-.887-.072-.992-1.028-1.021-3.192-.033-2.568-.084-6.45-4.733-6.45l-.111-.002c-4.663 0-4.713 3.883-4.747 6.452-.028 2.165-.133 3.121-1.02 3.194-.365.029-.665-.075-.956-.328-1.685-1.464-2-6.865-2.151-9.46a39.486 39.486 0 0 0-.102-1.467c-.086-.841-.547-1.763-1.08-2.83-1.14-2.282-2.7-5.406-1.403-9.619.366-1.19 1.055-2.005 2.104-2.49 2.147-.994 5.25-.361 7.219.228-1.524.4-3.661.854-5.508.854a.67.67 0 0 0 0 1.34c3.509 0 7.779-1.459 8.005-1.539a20.211 20.211 0 0 1 2.429-.811 7.456 7.456 0 0 0-.615 2.967c0 4.135 3.364 7.5 7.5 7.5.434 0 .858-.045 1.273-.117-.263.602-.54 1.166-.798 1.684Zm-.475-2.907a6.168 6.168 0 0 1-6.161-6.16 6.168 6.168 0 0 1 6.16-6.16 6.167 6.167 0 0 1 6.16 6.16 6.167 6.167 0 0 1-6.16 6.16Z" fill="#031126" fill-opacity=".6"/></g><defs><clipPath id="a"><path fill="#fff" d="M0 0h74v74H0z"/></clipPath><filter id="b" x="-80" y="0" width="234" height="243" filterUnits="userSpaceOnUse" color-interpolation-filters="sRGB"><feFlood flood-opacity="0" result="BackgroundImageFix"/><feColorMatrix in="SourceAlpha" values="0 0 0 0 0 0 0 0 0 0 0 0 0 0 0 0 0 0 127 0" result="hardAlpha"/><feOffset dy="3.057"/><feGaussianBlur stdDeviation="1.374"/><feColorMatrix values="0 0 0 0 0.286275 0 0 0 0 0.701961 0 0 0 0 0.984314 0 0 0 0.0496029 0"/><feBlend in2="BackgroundImageFix" result="effect1_dropShadow_2140_16"/><feColorMatrix in="SourceAlpha" values="0 0 0 0 0 0 0 0 0 0 0 0 0 0 0 0 0 0 127 0" result="hardAlpha"/><feOffset dy="7.732"/><feGaussianBlur stdDeviation="3.475"/><feColorMatrix values="0 0 0 0 0.286275 0 0 0 0 0.701961 0 0 0 0 0.984314 0 0 0 0.0709935 0"/><feBlend in2="effect1_dropShadow_2140_16" result="effect2_dropShadow_2140_16"/><feColorMatrix in="SourceAlpha" values="0 0 0 0 0 0 0 0 0 0 0 0 0 0 0 0 0 0 127 0" result="hardAlpha"/><feOffset dy="15.772"/><feGaussianBlur stdDeviation="7.088"/><feColorMatrix values="0 0 0 0 0.286275 0 0 0 0 0.701961 0 0 0 0 0.984314 0 0 0 0.0890065 0"/><feBlend in2="effect2_dropShadow_2140_16" result="effect3_dropShadow_2140_16"/><feColorMatrix in="SourceAlpha" values="0 0 0 0 0 0 0 0 0 0 0 0 0 0 0 0 0 0 127 0" result="hardAlpha"/><feOffset dy="32.486"/><feGaussianBlur stdDeviation="14.601"/><feColorMatrix values="0 0 0 0 0.286275 0 0 0 0 0.701961 0 0 0 0 0.984314 0 0 0 0.110397 0"/><feBlend in2="effect3_dropShadow_2140_16" result="effect4_dropShadow_2140_16"/><feColorMatrix in="SourceAlpha" values="0 0 0 0 0 0 0 0 0 0 0 0 0 0 0 0 0 0 127 0" result="hardAlpha"/><feOffset dy="89"/><feGaussianBlur stdDeviation="40"/><feColorMatrix values="0 0 0 0 0.286275 0 0 0 0 0.701961 0 0 0 0 0.984314 0 0 0 0.16 0"/><feBlend in2="effect4_dropShadow_2140_16" result="effect5_dropShadow_2140_16"/><feBlend in="SourceGraphic" in2="effect5_dropShadow_2140_16" result="shape"/></filter></defs></svg>