<svg width="50" height="50" fill="none" xmlns="http://www.w3.org/2000/svg"><path d="M25 0c13.779 0 25 11.216 25 25.015C50 38.785 38.779 50 25 50S0 38.784 0 25.015C0 11.215 11.221 0 25 0Zm-2.848 15.075c-.53 0-1.037.12-1.52.362a3.128 3.128 0 0 0-1.351 1.495c-.169.434-.434 1.737-.434 1.76-.266 1.424-.41 3.74-.41 6.296 0 2.438.144 4.655.361 6.102.024.024.29 1.64.58 2.195a3.038 3.038 0 0 0 2.678 1.64h.096c.724-.024 2.245-.651 2.245-.675 2.558-1.061 7.601-4.366 9.628-6.56l.145-.145a9.96 9.96 0 0 0 .676-.772 2.908 2.908 0 0 0 .579-1.758c0-.702-.217-1.354-.628-1.884-.096-.097-.458-.507-.796-.845-1.979-2.122-7.143-5.595-9.846-6.657-.41-.166-1.448-.53-2.003-.554Z" fill="#49B3FB"/></svg>