<svg width="74" height="74" fill="none" xmlns="http://www.w3.org/2000/svg"><g filter="url(#a)"><path d="M62 0H12C5.373 0 0 5.373 0 12v50c0 6.627 5.373 12 12 12h50c6.627 0 12-5.373 12-12V12c0-6.627-5.373-12-12-12Z" fill="#fff"/><path d="M62 .5H12C5.649.5.5 5.649.5 12v50c0 6.351 5.149 11.5 11.5 11.5h50c6.351 0 11.5-5.149 11.5-11.5V12C73.5 5.649 68.351.5 62 .5Z" stroke="url(#b)"/></g><path d="M35.71 42.704a.626.626 0 1 0-.885-.884.626.626 0 0 0 .886.884Zm-2.96-14.831c0 3.79 3.084 6.873 6.875 6.873s6.875-3.083 6.875-6.873S43.416 21 39.625 21c-3.79 0-6.875 3.083-6.875 6.873Zm12.5 0a5.63 5.63 0 0 1-5.625 5.624A5.63 5.63 0 0 1 34 27.873a5.63 5.63 0 0 1 5.625-5.623 5.63 5.63 0 0 1 5.625 5.623Z" fill="#031126" fill-opacity=".6"/><path d="M28.2 52.815a.625.625 0 0 0 .881.005l3.03-2.984a1.888 1.888 0 0 0 .446-1.94l.651-.627a1.865 1.865 0 0 1 1.302-.526h8.309a5.595 5.595 0 0 0 3.923-1.594c.044-.042-.33.398 5.669-6.77a2.502 2.502 0 0 0-.297-3.522 2.508 2.508 0 0 0-3.508.279l-3.688 3.79a2.511 2.511 0 0 0-1.943-.93h-6.97a8.066 8.066 0 0 0-3.13-.625c-3.01 0-5.637 1.39-7.048 3.995a1.867 1.867 0 0 0-1.671.517l-2.974 2.982a.625.625 0 0 0 0 .881l7.017 7.07Zm4.675-14.195c.958 0 1.883.193 2.752.573a.633.633 0 0 0 .25.052h7.098c.678 0 1.25.553 1.25 1.25 0 .689-.561 1.25-1.25 1.25h-5.1a.625.625 0 1 0 0 1.249h5.1a2.502 2.502 0 0 0 2.478-2.826c3.568-3.666 4.071-4.181 4.092-4.207a1.255 1.255 0 0 1 1.763-.149c.526.445.593 1.235.146 1.764l-5.606 6.7a4.35 4.35 0 0 1-3.029 1.217h-8.31c-.813 0-1.584.312-2.169.876l-.531.513-4.897-4.895c1.145-2.146 3.292-3.367 5.963-3.367Zm-7.835 4.147a.624.624 0 0 1 .774-.088c.108.066-.202-.217 5.414 5.39.25.25.236.647.003.88l-2.583 2.544-6.142-6.186 2.534-2.54Zm13.836-18.643v.732a1.877 1.877 0 0 0-1.25 1.767c0 1.034.84 1.875 1.875 1.875a.625.625 0 0 1 0 1.25c-.267 0-.556-.168-.812-.473a.625.625 0 0 0-.957.804c.334.397.727.674 1.144.814v.73a.625.625 0 0 0 1.249 0v-.733a1.878 1.878 0 0 0 1.251-1.767 1.877 1.877 0 0 0-1.875-1.875.626.626 0 0 1 0-1.25c.221 0 .455.114.675.327a.626.626 0 0 0 .87-.898 2.413 2.413 0 0 0-.921-.575v-.728a.625.625 0 1 0-1.25 0Z" fill="#031126" fill-opacity=".6"/><defs><linearGradient id="b" x1="37" y1="0" x2="37" y2="74" gradientUnits="userSpaceOnUse"><stop offset=".633" stop-color="#49B3FB"/><stop offset="1" stop-color="#49B3FB" stop-opacity="0"/></linearGradient><filter id="a" x="0" y="0" width="74" height="104" filterUnits="userSpaceOnUse" color-interpolation-filters="sRGB"><feFlood flood-opacity="0" result="BackgroundImageFix"/><feBlend in="SourceGraphic" in2="BackgroundImageFix" result="shape"/><feColorMatrix in="SourceAlpha" values="0 0 0 0 0 0 0 0 0 0 0 0 0 0 0 0 0 0 127 0" result="hardAlpha"/><feOffset dy="30"/><feGaussianBlur stdDeviation="30"/><feComposite in2="hardAlpha" operator="arithmetic" k2="-1" k3="1"/><feColorMatrix values="0 0 0 0 0.223529 0 0 0 0 0.223529 0 0 0 0 0.223529 0 0 0 0.15 0"/><feBlend in2="shape" result="effect1_innerShadow_2140_8"/></filter></defs></svg>