<svg width="40" height="40" fill="none" xmlns="http://www.w3.org/2000/svg"><g clip-path="url(#a)" fill="#031126" fill-opacity=".6"><path d="M39.952 22.298a4.667 4.667 0 0 0-3.953-3.952v-1.212c0-3.344-2.541-6.067-5.666-6.067-3.035 0-5.575 2.64-5.667 5.886h.039l-.039.006v13.138c0 4.2-3.14 7.61-7 7.61s-7-3.415-7-7.61V28.96c.967 0 2-.7 2-2.666v-1.677C16.947 23.522 20 19.848 20 15.683v-1.39h-1.334l-.028-8.677a3.337 3.337 0 0 0-2.742-3.263 1.99 1.99 0 1 0-.046 1.36 2 2 0 0 1 1.453 1.907l.03 8.673H16v1.409a5.301 5.301 0 0 1-3.838 4.974 6.062 6.062 0 0 1-3.666 0 5.298 5.298 0 0 1-3.83-4.974v-1.41h-2V5.627a2 2 0 0 1 1.48-1.922 2.01 2.01 0 1 0-.04-1.354 3.333 3.333 0 0 0-2.773 3.276v8.667H0v1.386c0 4.17 3.057 7.846 7.333 8.937v1.677c0 1.966 1.034 2.666 2 2.666v1.138c0 4.933 3.738 8.944 8.333 8.944 4.596 0 8.334-4.015 8.334-8.944V16.991c.066-2.53 2.012-4.588 4.333-4.588 2.39 0 4.333 2.122 4.333 4.733v1.21a4.667 4.667 0 1 0 5.286 3.952ZM14 3.626a.667.667 0 1 1 0-1.333.667.667 0 0 1 0 1.333ZM6 2.293a.667.667 0 1 1 0 1.333.667.667 0 0 1 0-1.333ZM1.333 15.679v-.053h2v.076a6.624 6.624 0 0 0 4.759 6.242 7.418 7.418 0 0 0 4.478 0 6.625 6.625 0 0 0 4.763-6.242v-.076h1.333v.053c0 3.709-2.858 6.972-6.8 7.762a9.512 9.512 0 0 1-3.733-.002c-3.941-.788-6.8-4.051-6.8-7.76Zm8 11.947c-.6 0-.666-.934-.666-1.334v-1.414c.053.006.108.01.162.014.066.008.133.013.2.02.315.027.633.046.954.047h.033c.32 0 .637-.02.95-.048.067-.006.138-.011.207-.019.052-.005.107-.008.16-.014v1.415c0 .4-.067 1.333-.667 1.333H9.333Zm26-1.334a3.333 3.333 0 1 1 0-6.666 3.333 3.333 0 0 1 0 6.666Z"/><path d="M35.333 20.96a2 2 0 1 0 0 4 2 2 0 0 0 0-4Zm0 2.666a.667.667 0 1 1 0-1.333.667.667 0 0 1 0 1.333Z"/></g><defs><clipPath id="a"><path fill="#fff" d="M0 0h40v40H0z"/></clipPath></defs></svg>