<svg width="68" height="12" fill="none" xmlns="http://www.w3.org/2000/svg"><path d="M12.533 4.49a.865.865 0 0 0-.698-.588l-3.302-.48L7.058.443c-.292-.59-1.257-.59-1.55 0l-1.475 2.98-3.293.48a.866.866 0 0 0-.48 1.473l2.39 2.328-.564 3.285a.866.866 0 0 0 .344.846c.267.193.62.218.911.065l2.942-1.552 2.95 1.552a.862.862 0 0 0 .911-.065.867.867 0 0 0 .344-.846l-.562-3.285 2.388-2.328a.863.863 0 0 0 .219-.886Zm13.827 0a.865.865 0 0 0-.698-.588l-3.301-.48-1.476-2.98c-.292-.59-1.257-.59-1.55 0l-1.474 2.98-3.294.48a.866.866 0 0 0-.479 1.474l2.39 2.328-.564 3.285a.866.866 0 0 0 1.255.91l2.941-1.55 2.95 1.55a.862.862 0 0 0 .912-.064.867.867 0 0 0 .344-.846l-.563-3.285 2.389-2.328a.863.863 0 0 0 .218-.886Zm13.828 0a.865.865 0 0 0-.699-.588l-3.301-.48-1.475-2.98c-.292-.59-1.258-.59-1.55 0l-1.475 2.98-3.293.48a.866.866 0 0 0-.48 1.474l2.39 2.328-.564 3.285a.867.867 0 0 0 .344.846c.267.193.62.218.91.065l2.943-1.552 2.95 1.552a.862.862 0 0 0 .911-.065.867.867 0 0 0 .344-.846l-.563-3.285 2.389-2.328a.863.863 0 0 0 .219-.886Zm13.827 0a.865.865 0 0 0-.698-.588l-3.302-.48L48.54.443c-.292-.59-1.257-.59-1.55 0l-1.474 2.98-3.294.48a.866.866 0 0 0-.479 1.474l2.389 2.328-.563 3.285a.867.867 0 0 0 .343.846.867.867 0 0 0 .911.065l2.942-1.552 2.95 1.552a.862.862 0 0 0 .911-.065.867.867 0 0 0 .344-.846l-.562-3.285 2.388-2.328a.863.863 0 0 0 .22-.886Zm13.827 0a.866.866 0 0 0-.698-.588l-3.301-.48-1.475-2.98c-.292-.59-1.258-.59-1.55 0l-1.475 2.98-3.294.48a.866.866 0 0 0-.478 1.474l2.388 2.328-.563 3.285a.866.866 0 0 0 1.255.91l2.942-1.55 2.952 1.55c.29.155.642.13.91-.065a.866.866 0 0 0 .343-.845l-.563-3.285 2.389-2.328a.864.864 0 0 0 .218-.886Z" fill="#FEB813"/></svg>