<svg width="144" height="30" fill="none" xmlns="http://www.w3.org/2000/svg"><path d="M66.512 6.248c1.76 0 3.304.344 4.632 1.032 1.344.688 2.376 1.672 3.096 2.952.736 1.264 1.104 2.736 1.104 4.416 0 1.68-.368 3.152-1.104 4.416-.72 1.248-1.752 2.216-3.096 2.904-1.328.688-2.872 1.032-4.632 1.032h-5.856V6.248h5.856Zm-.12 13.896c1.76 0 3.12-.48 4.08-1.44s1.44-2.312 1.44-4.056c0-1.744-.48-3.104-1.44-4.08-.96-.992-2.32-1.488-4.08-1.488h-2.376v11.064h2.376Zm23.827-4.08c0 .48-.032.912-.096 1.296h-9.72c.08.96.416 1.712 1.008 2.256.592.544 1.32.816 2.184.816 1.248 0 2.136-.536 2.664-1.608h3.624c-.384 1.28-1.12 2.336-2.208 3.168-1.088.816-2.424 1.224-4.008 1.224-1.28 0-2.432-.28-3.456-.84a6.182 6.182 0 0 1-2.376-2.424c-.56-1.04-.84-2.24-.84-3.6 0-1.376.28-2.584.84-3.624a5.861 5.861 0 0 1 2.352-2.4c1.008-.56 2.168-.84 3.48-.84 1.264 0 2.392.272 3.384.816a5.63 5.63 0 0 1 2.328 2.328c.56.992.84 2.136.84 3.432Zm-3.48-.96c-.016-.864-.328-1.552-.936-2.064-.608-.528-1.352-.792-2.232-.792-.832 0-1.536.256-2.112.768-.56.496-.904 1.192-1.032 2.088h6.312Zm13.301-5.592c1.584 0 2.864.504 3.84 1.512.976.992 1.464 2.384 1.464 4.176V23h-3.36v-7.344c0-1.056-.264-1.864-.792-2.424-.528-.576-1.248-.864-2.16-.864-.928 0-1.664.288-2.208.864-.528.56-.792 1.368-.792 2.424V23h-3.36V9.704h3.36v1.656a4.555 4.555 0 0 1 1.704-1.344 5.28 5.28 0 0 1 2.304-.504Zm12.411 2.952v6.432c0 .448.104.776.312.984.224.192.592.288 1.104.288h1.56V23h-2.112c-2.832 0-4.248-1.376-4.248-4.128v-6.408h-1.584v-2.76h1.584V6.416h3.384v3.288h2.976v2.76h-2.976Zm4.528 3.84c0-1.344.264-2.536.792-3.576.545-1.04 1.273-1.84 2.185-2.4.928-.56 1.96-.84 3.096-.84.992 0 1.856.2 2.592.6.752.4 1.352.904 1.8 1.512V9.704h3.384V23h-3.384v-1.944c-.432.624-1.032 1.144-1.8 1.56-.752.4-1.624.6-2.616.6a5.71 5.71 0 0 1-3.072-.864c-.912-.576-1.64-1.384-2.185-2.424-.528-1.056-.792-2.264-.792-3.624Zm10.465.048c0-.816-.16-1.512-.48-2.088-.32-.592-.752-1.04-1.296-1.344a3.397 3.397 0 0 0-1.752-.48c-.624 0-1.2.152-1.728.456-.528.304-.96.752-1.296 1.344-.32.576-.48 1.264-.48 2.064s.16 1.504.48 2.112c.336.592.768 1.048 1.296 1.368.544.32 1.12.48 1.728.48.624 0 1.208-.152 1.752-.456.544-.32.976-.768 1.296-1.344.32-.592.48-1.296.48-2.112ZM137.469 5.24V23h-3.36V5.24h3.36Z" fill="#031126"/><path d="m40.377 14.544-.002-.046c-.003-.032-.004-.063-.008-.094a2.724 2.724 0 0 0-.241-.873 3.657 3.657 0 0 0-.77-1.056 6.001 6.001 0 0 0-.925-.731 10.974 10.974 0 0 0-1.9-.96 18.17 18.17 0 0 0-1.769-.598 24.19 24.19 0 0 0-1.516-.384c-.453-.1-.85-.178-1.178-.238-.328-.06-.585-.102-.76-.131l-.27-.041a.077.077 0 0 0-.032.15l.263.07c.17.047.42.116.737.21.317.094.7.212 1.134.359.434.146.92.322 1.44.533.52.211 1.073.459 1.634.756.56.297 1.13.643 1.644 1.062.256.205.49.435.7.685.203.247.366.512.451.776.043.126.068.258.076.39.002.032 0 .064 0 .096 0 .015 0 .031-.002.047v.023-.01.028a.518.518 0 0 1-.03.109 1.079 1.079 0 0 1-.177.281 2.474 2.474 0 0 1-.31.307c-.259.21-.535.397-.826.558-.3.171-.617.327-.938.473a21.6 21.6 0 0 1-1.96.758c-.653.22-1.295.411-1.908.58-.612.17-1.197.316-1.738.444-.845.198-1.585.35-2.172.463a17.399 17.399 0 0 0-.49-3.404c-.572-2.31.659-5.227.659-5.227s3.202-5.462.596-8.14c-3.425-3.52-7.284-.698-7.284-.698a4.33 4.33 0 0 1-1.964.483c-.62 0-1.272-.137-1.964-.483 0 0-3.86-2.821-7.284.699-1.555 1.597-1.042 4.185-.375 6.015-.677.177-1.587.434-2.641.792a34.96 34.96 0 0 0-1.853.687c-.65.263-1.33.56-2.021.904-.72.354-1.415.757-2.08 1.207-.353.24-.69.503-1.008.788-.325.296-.64.625-.905 1.043-.141.221-.25.46-.325.711-.04.137-.067.278-.079.42l-.004.056-.002.064v.101c.004.066.007.132.015.197.03.254.096.503.196.74.095.22.214.43.355.624.262.352.571.665.92.932.319.245.657.466 1.01.66.648.352 1.325.65 2.022.89a21.9 21.9 0 0 0 1.864.562 32.926 32.926 0 0 0 2.831.582c.342.056.614.094.798.122l.282.04a.076.076 0 0 0 .028-.149l-.276-.066c-.18-.044-.444-.108-.778-.197-.335-.088-.739-.2-1.198-.338-.46-.139-.975-.305-1.528-.506a21.22 21.22 0 0 1-1.747-.72 12.666 12.666 0 0 1-1.804-1.016 6.823 6.823 0 0 1-.822-.661 3.589 3.589 0 0 1-.633-.776 2.034 2.034 0 0 1-.183-.415 1.448 1.448 0 0 1-.063-.406l.003-.1c0 .01.002-.054.004-.045a.065.065 0 0 0 .003-.01l.003-.02a.883.883 0 0 1 .047-.157c.053-.124.12-.24.203-.347.181-.238.434-.47.712-.681a8.22 8.22 0 0 1 .9-.587 15.99 15.99 0 0 1 1.964-.928c.663-.264 1.32-.488 1.95-.685a31.75 31.75 0 0 1 1.794-.5 37.278 37.278 0 0 1 3.045-.62c.18.453 1.15 3.057.632 5.157-.99 4.005-.497 8.076 1.14 11.929 1.074 2.528 2.728 5.249 3.1-.331.349-5.239 1.146-8.456 3.75-8.456 2.636 0 3.403 3.217 3.752 8.456.372 5.58 2.025 2.86 3.1.33.846-1.99 1.387-4.042 1.575-6.113l.122-.032c.652-.178 1.58-.443 2.681-.802.551-.18 1.145-.383 1.77-.614.623-.23 1.277-.487 1.95-.777.671-.29 1.356-.615 2.041-.996a12.86 12.86 0 0 0 1.02-.628c.352-.237.681-.505.984-.801a3.8 3.8 0 0 0 .447-.534c.153-.219.268-.462.34-.72.038-.145.058-.296.059-.446l-.003-.054Zm-26.37-4.809a.377.377 0 0 1-.608-.043 9.975 9.975 0 0 1-1.07-2.245 7.213 7.213 0 0 1-.27-1.116 5.631 5.631 0 0 1 .15-2.503c.405-1.347 1.217-2.054 1.251-2.083a.376.376 0 0 1 .49.569c-.011.01-.7.624-1.032 1.77-.32 1.104-.223 2.31.29 3.598a9.2 9.2 0 0 0 .487 1.028c.105.193.22.388.342.584a.376.376 0 0 1-.03.441Z" fill="#0098FF"/></svg>